<svg width="250" height="48" viewBox="0 0 250 48" fill="none" xmlns="http://www.w3.org/2000/svg">
<rect width="249.255" height="48" fill="#4F46E5"/>
<path d="M28.9041 28.5H35.0961C34.4761 31.773 33.2351 34 32.0001 34C30.8031 34 29.6001 31.906 28.9621 28.796L28.9041 28.502V28.5ZM23.0661 28.501H27.3721C27.7361 30.583 28.3551 32.355 29.1641 33.594C26.6216 32.8394 24.4816 31.1085 23.2121 28.78L23.0661 28.501ZM36.6291 28.501H40.9341C40.3183 29.7205 39.4599 30.8012 38.4115 31.677C37.363 32.5528 36.1467 33.2052 34.8371 33.594C35.5921 32.436 36.1811 30.816 36.5521 28.913L36.6291 28.501ZM36.9311 22.001H41.8011C42.1387 23.6627 42.0503 25.3827 41.5441 27.001H36.8401C36.9933 25.5584 37.0367 24.1062 36.9701 22.657L36.9301 22L36.9311 22.001ZM22.2001 22H27.0701C26.9655 23.4719 26.9765 24.9498 27.1031 26.42L27.1601 27H22.4561C21.9496 25.3818 21.8608 23.6617 22.1981 22H22.2001ZM28.5771 22H35.4261C35.5403 23.4734 35.528 24.9538 35.3891 26.425L35.3271 27H28.6741C28.4993 25.5027 28.4552 23.993 28.5421 22.488L28.5771 22H35.4261H28.5751H28.5771ZM34.9451 14.576L34.8371 14.406C36.3234 14.8474 37.687 15.6274 38.821 16.6848C39.9549 17.7422 40.8281 19.0482 41.3721 20.5H36.7821C36.4661 18.084 35.8251 16.008 34.9441 14.577L34.9451 14.576ZM29.0431 14.443L29.1651 14.406C28.2831 15.757 27.6281 17.736 27.2801 20.06L27.2181 20.5H22.6301C23.1666 19.0683 24.0233 17.7783 25.1348 16.7285C26.2463 15.6787 27.5832 14.8969 29.0431 14.443ZM32.0001 14.002C33.3191 14.002 34.6461 16.544 35.2141 20.185L35.2611 20.5H28.7391C29.2801 16.691 30.6441 14.002 32.0001 14.002Z" fill="#FAFBFF"/>
<path d="M55.6506 29.4474C54.9593 29.4474 54.3366 29.3243 53.7827 29.0781C53.2334 28.8272 52.7978 28.4579 52.4759 27.9702C52.1586 27.4825 52 26.8812 52 26.1662C52 25.5507 52.1136 25.0417 52.3409 24.6392C52.5682 24.2367 52.8783 23.9148 53.2713 23.6733C53.6643 23.4318 54.107 23.2495 54.5994 23.1264C55.0966 22.9986 55.6103 22.9063 56.1406 22.8494C56.7798 22.7831 57.2983 22.724 57.696 22.6719C58.0938 22.6151 58.3826 22.5298 58.5625 22.4162C58.7472 22.2978 58.8395 22.1155 58.8395 21.8693V21.8267C58.8395 21.2917 58.6809 20.8774 58.3636 20.5838C58.0464 20.2903 57.5895 20.1435 56.9929 20.1435C56.3632 20.1435 55.8636 20.2808 55.4943 20.5554C55.1297 20.83 54.8835 21.1544 54.7557 21.5284L52.3551 21.1875C52.5445 20.5246 52.857 19.9706 53.2926 19.5256C53.7282 19.0758 54.2609 18.7396 54.8906 18.5171C55.5204 18.2898 56.2164 18.1761 56.9787 18.1761C57.5043 18.1761 58.0275 18.2377 58.5483 18.3608C59.0691 18.4839 59.545 18.6875 59.9759 18.9716C60.4067 19.251 60.7524 19.6321 61.0128 20.1151C61.2779 20.598 61.4105 21.2017 61.4105 21.9261V29.2273H58.9389V27.7287H58.8537C58.6974 28.0317 58.4773 28.3158 58.1932 28.581C57.9138 28.8414 57.5611 29.0521 57.1349 29.2131C56.7135 29.3693 56.2188 29.4474 55.6506 29.4474ZM56.3182 27.5582C56.8343 27.5582 57.2817 27.4564 57.6605 27.2528C58.0393 27.0445 58.3305 26.7699 58.5341 26.429C58.7424 26.0881 58.8466 25.7164 58.8466 25.3139V24.0284C58.7661 24.0947 58.6288 24.1563 58.4347 24.2131C58.2453 24.2699 58.0322 24.3196 57.7955 24.3622C57.5587 24.4048 57.3243 24.4427 57.0923 24.4759C56.8603 24.509 56.6591 24.5374 56.4886 24.5611C56.1051 24.6132 55.7618 24.6984 55.4588 24.8168C55.1558 24.9351 54.9167 25.1009 54.7415 25.3139C54.5663 25.5223 54.4787 25.7921 54.4787 26.1236C54.4787 26.5971 54.6515 26.9546 54.9972 27.196C55.3428 27.4375 55.7831 27.5582 56.3182 27.5582Z" fill="#FAFBFF"/>
<path d="M66.5668 22.8352V29.2273H63.9957V18.3182H66.4531V20.1719H66.581C66.8319 19.5611 67.232 19.0758 67.7813 18.7159C68.3352 18.3561 69.0194 18.1761 69.8338 18.1761C70.5866 18.1761 71.2424 18.3371 71.8011 18.6591C72.3646 18.9811 72.8002 19.4474 73.108 20.0582C73.4205 20.669 73.5743 21.41 73.5696 22.2813V29.2273H70.9986V22.679C70.9986 21.9498 70.8092 21.3793 70.4304 20.9673C70.0563 20.5554 69.5379 20.3494 68.875 20.3494C68.4252 20.3494 68.0251 20.4489 67.6747 20.6477C67.3291 20.8419 67.0568 21.1236 66.858 21.4929C66.6638 21.8622 66.5668 22.3097 66.5668 22.8352Z" fill="#FAFBFF"/>
<path d="M83.1364 24.6392V18.3182H85.7074V29.2273H83.2145V27.2884H83.1009C82.8546 27.8992 82.4498 28.3987 81.8864 28.7869C81.3277 29.1752 80.6387 29.3693 79.8196 29.3693C79.1046 29.3693 78.4725 29.2107 77.9233 28.8935C77.3788 28.5715 76.9527 28.1051 76.6449 27.4943C76.3371 26.8788 76.1832 26.1354 76.1832 25.2642V18.3182H78.7543V24.8665C78.7543 25.5578 78.9437 26.107 79.3224 26.5142C79.7012 26.9214 80.1984 27.125 80.8139 27.125C81.1927 27.125 81.5597 27.0327 81.9148 26.848C82.2699 26.6634 82.5611 26.3887 82.7884 26.0242C83.0204 25.6548 83.1364 25.1932 83.1364 24.6392Z" fill="#FAFBFF"/>
<path d="M88.3512 33.3182V18.3182H90.8796V20.1222H91.0288C91.1613 19.857 91.3484 19.5753 91.5898 19.277C91.8313 18.974 92.158 18.7159 92.57 18.5028C92.9819 18.285 93.5075 18.1761 94.1467 18.1761C94.9895 18.1761 95.7494 18.3916 96.4265 18.8224C97.1083 19.2486 97.6481 19.8807 98.0458 20.7188C98.4483 21.5521 98.6495 22.5748 98.6495 23.7869C98.6495 24.9849 98.453 26.0028 98.06 26.8409C97.667 27.679 97.132 28.3182 96.4549 28.7585C95.7778 29.1989 95.0108 29.419 94.1538 29.419C93.5288 29.419 93.0103 29.3149 92.5984 29.1065C92.1864 28.8982 91.855 28.6473 91.604 28.3537C91.3578 28.0554 91.1661 27.7737 91.0288 27.5085H90.9222V33.3182H88.3512ZM90.8725 23.7727C90.8725 24.4782 90.9719 25.0961 91.1708 25.6264C91.3744 26.1567 91.6656 26.571 92.0444 26.8693C92.4279 27.1629 92.8919 27.3097 93.4364 27.3097C94.0046 27.3097 94.4805 27.1581 94.864 26.8551C95.2475 26.5474 95.5363 26.1283 95.7305 25.598C95.9293 25.063 96.0288 24.4546 96.0288 23.7727C96.0288 23.0956 95.9317 22.4943 95.7376 21.9688C95.5434 21.4432 95.2546 21.0313 94.8711 20.733C94.4876 20.4347 94.0094 20.2855 93.4364 20.2855C92.8872 20.2855 92.4208 20.4299 92.0373 20.7188C91.6538 21.0076 91.3626 21.4124 91.1637 21.9332C90.9696 22.4541 90.8725 23.0672 90.8725 23.7727Z" fill="#FAFBFF"/>
<path d="M100.851 29.2273V18.3182H103.344V20.1364H103.458C103.657 19.5066 103.998 19.0213 104.48 18.6804C104.968 18.3348 105.525 18.1619 106.15 18.1619C106.292 18.1619 106.45 18.169 106.625 18.1832C106.805 18.1927 106.954 18.2093 107.073 18.233V20.598C106.964 20.5601 106.791 20.527 106.554 20.4986C106.322 20.4654 106.097 20.4489 105.88 20.4489C105.411 20.4489 104.989 20.5507 104.615 20.7543C104.246 20.9531 103.955 21.2301 103.742 21.5852C103.529 21.9403 103.422 22.3499 103.422 22.8139V29.2273H100.851Z" fill="#FAFBFF"/>
<path d="M111.725 29.4474C111.034 29.4474 110.411 29.3243 109.857 29.0781C109.308 28.8272 108.872 28.4579 108.55 27.9702C108.233 27.4825 108.074 26.8812 108.074 26.1662C108.074 25.5507 108.188 25.0417 108.415 24.6392C108.642 24.2367 108.953 23.9148 109.346 23.6733C109.739 23.4318 110.181 23.2495 110.674 23.1264C111.171 22.9986 111.685 22.9063 112.215 22.8494C112.854 22.7831 113.373 22.724 113.77 22.6719C114.168 22.6151 114.457 22.5298 114.637 22.4162C114.821 22.2978 114.914 22.1155 114.914 21.8693V21.8267C114.914 21.2917 114.755 20.8774 114.438 20.5838C114.121 20.2903 113.664 20.1435 113.067 20.1435C112.437 20.1435 111.938 20.2808 111.569 20.5554C111.204 20.83 110.958 21.1544 110.83 21.5284L108.429 21.1875C108.619 20.5246 108.931 19.9706 109.367 19.5256C109.802 19.0758 110.335 18.7396 110.965 18.5171C111.595 18.2898 112.291 18.1761 113.053 18.1761C113.578 18.1761 114.102 18.2377 114.623 18.3608C115.143 18.4839 115.619 18.6875 116.05 18.9716C116.481 19.251 116.827 19.6321 117.087 20.1151C117.352 20.598 117.485 21.2017 117.485 21.9261V29.2273H115.013V27.7287H114.928C114.772 28.0317 114.551 28.3158 114.267 28.581C113.988 28.8414 113.635 29.0521 113.209 29.2131C112.788 29.3693 112.293 29.4474 111.725 29.4474ZM112.392 27.5582C112.909 27.5582 113.356 27.4564 113.735 27.2528C114.114 27.0445 114.405 26.7699 114.608 26.429C114.817 26.0881 114.921 25.7164 114.921 25.3139V24.0284C114.84 24.0947 114.703 24.1563 114.509 24.2131C114.319 24.2699 114.106 24.3196 113.87 24.3622C113.633 24.4048 113.399 24.4427 113.167 24.4759C112.935 24.509 112.733 24.5374 112.563 24.5611C112.179 24.6132 111.836 24.6984 111.533 24.8168C111.23 24.9351 110.991 25.1009 110.816 25.3139C110.641 25.5223 110.553 25.7921 110.553 26.1236C110.553 26.5971 110.726 26.9546 111.071 27.196C111.417 27.4375 111.857 27.5582 112.392 27.5582Z" fill="#FAFBFF"/>
<path d="M122.321 29.2273L119.239 18.3182H121.86L123.777 25.9886H123.877L125.837 18.3182H128.429L130.39 25.946H130.496L132.385 18.3182H135.013L131.924 29.2273H129.246L127.201 21.8551H127.051L125.006 29.2273H122.321Z" fill="#FAFBFF"/>
<path d="M139.947 29.4474C139.256 29.4474 138.634 29.3243 138.08 29.0781C137.53 28.8272 137.095 28.4579 136.773 27.9702C136.455 27.4825 136.297 26.8812 136.297 26.1662C136.297 25.5507 136.411 25.0417 136.638 24.6392C136.865 24.2367 137.175 23.9148 137.568 23.6733C137.961 23.4318 138.404 23.2495 138.896 23.1264C139.393 22.9986 139.907 22.9063 140.438 22.8494C141.077 22.7831 141.595 22.724 141.993 22.6719C142.391 22.6151 142.679 22.5298 142.859 22.4162C143.044 22.2978 143.136 22.1155 143.136 21.8693V21.8267C143.136 21.2917 142.978 20.8774 142.661 20.5838C142.343 20.2903 141.886 20.1435 141.29 20.1435C140.66 20.1435 140.161 20.2808 139.791 20.5554C139.427 20.83 139.18 21.1544 139.053 21.5284L136.652 21.1875C136.841 20.5246 137.154 19.9706 137.589 19.5256C138.025 19.0758 138.558 18.7396 139.188 18.5171C139.817 18.2898 140.513 18.1761 141.276 18.1761C141.801 18.1761 142.324 18.2377 142.845 18.3608C143.366 18.4839 143.842 18.6875 144.273 18.9716C144.704 19.251 145.049 19.6321 145.31 20.1151C145.575 20.598 145.707 21.2017 145.707 21.9261V29.2273H143.236V27.7287H143.151C142.994 28.0317 142.774 28.3158 142.49 28.581C142.211 28.8414 141.858 29.0521 141.432 29.2131C141.01 29.3693 140.516 29.4474 139.947 29.4474ZM140.615 27.5582C141.131 27.5582 141.579 27.4564 141.957 27.2528C142.336 27.0445 142.627 26.7699 142.831 26.429C143.039 26.0881 143.143 25.7164 143.143 25.3139V24.0284C143.063 24.0947 142.926 24.1563 142.732 24.2131C142.542 24.2699 142.329 24.3196 142.092 24.3622C141.856 24.4048 141.621 24.4427 141.389 24.4759C141.157 24.509 140.956 24.5374 140.786 24.5611C140.402 24.6132 140.059 24.6984 139.756 24.8168C139.453 24.9351 139.214 25.1009 139.038 25.3139C138.863 25.5223 138.776 25.7921 138.776 26.1236C138.776 26.5971 138.948 26.9546 139.294 27.196C139.64 27.4375 140.08 27.5582 140.615 27.5582Z" fill="#FAFBFF"/>
<path d="M150.864 14.6818V29.2273H148.293V14.6818H150.864Z" fill="#FAFBFF"/>
<path d="M155.091 29.3835C154.66 29.3835 154.291 29.232 153.983 28.929C153.676 28.626 153.524 28.2566 153.529 27.821C153.524 27.3949 153.676 27.0303 153.983 26.7273C154.291 26.4242 154.66 26.2727 155.091 26.2727C155.508 26.2727 155.87 26.4242 156.178 26.7273C156.49 27.0303 156.649 27.3949 156.654 27.821C156.649 28.1099 156.573 28.3726 156.426 28.6094C156.284 28.8461 156.095 29.0355 155.858 29.1776C155.626 29.3149 155.371 29.3835 155.091 29.3835Z" fill="#FAFBFF"/>
<path d="M164.067 29.4403C162.978 29.4403 162.043 29.2012 161.261 28.723C160.485 28.2448 159.886 27.5843 159.464 26.7415C159.048 25.8939 158.839 24.9186 158.839 23.8153C158.839 22.7074 159.053 21.7296 159.479 20.8821C159.905 20.0298 160.506 19.367 161.283 18.8935C162.064 18.4153 162.987 18.1761 164.053 18.1761C164.938 18.1761 165.722 18.3395 166.403 18.6662C167.09 18.9882 167.637 19.4451 168.044 20.0369C168.451 20.6241 168.683 21.3106 168.74 22.0966H166.283C166.183 21.571 165.946 21.1331 165.572 20.7827C165.203 20.4276 164.708 20.25 164.088 20.25C163.562 20.25 163.101 20.3921 162.703 20.6761C162.305 20.9555 161.995 21.358 161.773 21.8835C161.555 22.4091 161.446 23.0388 161.446 23.7727C161.446 24.5161 161.555 25.1553 161.773 25.6903C161.991 26.2206 162.296 26.6302 162.689 26.919C163.087 27.2031 163.553 27.3452 164.088 27.3452C164.467 27.3452 164.805 27.2742 165.104 27.1321C165.407 26.9853 165.66 26.7746 165.864 26.5C166.067 26.2254 166.207 25.8916 166.283 25.4986H168.74C168.678 26.2704 168.451 26.9546 168.058 27.5511C167.665 28.143 167.13 28.607 166.453 28.9432C165.776 29.2746 164.981 29.4403 164.067 29.4403Z" fill="#FAFBFF"/>
<path d="M175.61 29.4403C174.544 29.4403 173.621 29.206 172.84 28.7372C172.059 28.2685 171.453 27.6127 171.022 26.7699C170.596 25.9271 170.382 24.9422 170.382 23.8153C170.382 22.6885 170.596 21.7012 171.022 20.8537C171.453 20.0062 172.059 19.348 172.84 18.8793C173.621 18.4105 174.544 18.1761 175.61 18.1761C176.675 18.1761 177.598 18.4105 178.38 18.8793C179.161 19.348 179.765 20.0062 180.191 20.8537C180.622 21.7012 180.837 22.6885 180.837 23.8153C180.837 24.9422 180.622 25.9271 180.191 26.7699C179.765 27.6127 179.161 28.2685 178.38 28.7372C177.598 29.206 176.675 29.4403 175.61 29.4403ZM175.624 27.3807C176.202 27.3807 176.685 27.2221 177.073 26.9048C177.461 26.5829 177.75 26.152 177.939 25.6122C178.133 25.0724 178.23 24.4711 178.23 23.8082C178.23 23.1406 178.133 22.5369 177.939 21.9972C177.75 21.4527 177.461 21.0194 177.073 20.6974C176.685 20.3755 176.202 20.2145 175.624 20.2145C175.032 20.2145 174.54 20.3755 174.147 20.6974C173.758 21.0194 173.467 21.4527 173.273 21.9972C173.084 22.5369 172.989 23.1406 172.989 23.8082C172.989 24.4711 173.084 25.0724 173.273 25.6122C173.467 26.152 173.758 26.5829 174.147 26.9048C174.54 27.2221 175.032 27.3807 175.624 27.3807Z" fill="#FAFBFF"/>
<path d="M183.019 29.2273V18.3182H185.477V20.1719H185.604C185.832 19.5469 186.208 19.0592 186.734 18.7088C187.259 18.3537 187.887 18.1761 188.616 18.1761C189.354 18.1761 189.977 18.3561 190.484 18.7159C190.995 19.071 191.355 19.5564 191.563 20.1719H191.677C191.918 19.5658 192.326 19.0829 192.898 18.723C193.476 18.3584 194.16 18.1761 194.951 18.1761C195.955 18.1761 196.774 18.4934 197.408 19.1278C198.043 19.7623 198.36 20.688 198.36 21.9048V29.2273H195.782V22.3026C195.782 21.6255 195.602 21.1307 195.242 20.8182C194.882 20.501 194.442 20.3423 193.921 20.3423C193.301 20.3423 192.816 20.5365 192.465 20.9247C192.12 21.3082 191.947 21.8078 191.947 22.4233V29.2273H189.425V22.196C189.425 21.6326 189.255 21.1828 188.914 20.8466C188.578 20.5104 188.138 20.3423 187.593 20.3423C187.224 20.3423 186.888 20.437 186.585 20.6264C186.281 20.8111 186.04 21.0739 185.86 21.4148C185.68 21.751 185.59 22.1439 185.59 22.5938V29.2273H183.019Z" fill="#FAFBFF"/>
<path d="M202.552 29.3835C202.121 29.3835 201.752 29.232 201.444 28.929C201.136 28.626 200.985 28.2566 200.99 27.821C200.985 27.3949 201.136 27.0303 201.444 26.7273C201.752 26.4242 202.121 26.2727 202.552 26.2727C202.969 26.2727 203.331 26.4242 203.639 26.7273C203.951 27.0303 204.11 27.3949 204.115 27.821C204.11 28.1099 204.034 28.3726 203.887 28.6094C203.745 28.8461 203.556 29.0355 203.319 29.1776C203.087 29.3149 202.832 29.3835 202.552 29.3835Z" fill="#FAFBFF"/>
<path d="M209.34 22.8352V29.2273H206.769V18.3182H209.227V20.1719H209.354C209.605 19.5611 210.005 19.0758 210.555 18.7159C211.109 18.3561 211.793 18.1761 212.607 18.1761C213.36 18.1761 214.016 18.3371 214.575 18.6591C215.138 18.9811 215.574 19.4474 215.881 20.0582C216.194 20.669 216.348 21.41 216.343 22.2813V29.2273H213.772V22.679C213.772 21.9498 213.583 21.3793 213.204 20.9673C212.83 20.5554 212.311 20.3494 211.648 20.3494C211.199 20.3494 210.799 20.4489 210.448 20.6477C210.103 20.8419 209.83 21.1236 209.631 21.4929C209.437 21.8622 209.34 22.3097 209.34 22.8352Z" fill="#FAFBFF"/>
<path d="M218.957 33.3182V18.3182H221.485V20.1222H221.634C221.767 19.857 221.954 19.5753 222.195 19.277C222.437 18.974 222.763 18.7159 223.175 18.5028C223.587 18.285 224.113 18.1761 224.752 18.1761C225.595 18.1761 226.355 18.3916 227.032 18.8224C227.714 19.2486 228.254 19.8807 228.651 20.7188C229.054 21.5521 229.255 22.5748 229.255 23.7869C229.255 24.9849 229.058 26.0028 228.665 26.8409C228.272 27.679 227.737 28.3182 227.06 28.7585C226.383 29.1989 225.616 29.419 224.759 29.419C224.134 29.419 223.616 29.3149 223.204 29.1065C222.792 28.8982 222.46 28.6473 222.21 28.3537C221.963 28.0554 221.772 27.7737 221.634 27.5085H221.528V33.3182H218.957ZM221.478 23.7727C221.478 24.4782 221.577 25.0961 221.776 25.6264C221.98 26.1567 222.271 26.571 222.65 26.8693C223.033 27.1629 223.497 27.3097 224.042 27.3097C224.61 27.3097 225.086 27.1581 225.469 26.8551C225.853 26.5474 226.142 26.1283 226.336 25.598C226.535 25.063 226.634 24.4546 226.634 23.7727C226.634 23.0956 226.537 22.4943 226.343 21.9688C226.149 21.4432 225.86 21.0313 225.477 20.733C225.093 20.4347 224.615 20.2855 224.042 20.2855C223.493 20.2855 223.026 20.4299 222.643 20.7188C222.259 21.0076 221.968 21.4124 221.769 21.9332C221.575 22.4541 221.478 23.0672 221.478 23.7727Z" fill="#FAFBFF"/>
</svg>
